<svg id="Layer_1" enable-background="new 0 0 512.005 512.005" height="512" viewBox="0 0 512.005 512.005" width="512" xmlns="http://www.w3.org/2000/svg"><g><g clip-rule="evenodd" fill-rule="evenodd"><path d="m256.003 237.373c-29.499 0-57.785-1.427-83.994-4.044l-71.991 268.673h311.969l-71.991-268.673c-26.209 2.617-54.495 4.044-83.993 4.044z" fill="#b8ecbb"/><path d="m279.212 312.312c-12.426 0-22.5 10.074-22.5 22.5 0 9.065 5.36 16.878 13.085 20.441 2.864 1.322 6.054 2.059 9.415 2.059 12.427 0 22.5-10.073 22.5-22.5 0-12.426-10.073-22.5-22.5-22.5z" fill="#ffdcd5"/><g><path d="m256.003 152.147c61.58 0 111.5-13.721 111.5-30.646 0-4.089-.22-8.127-.649-12.102-6.032-55.888-53.361-99.399-110.851-99.399s-104.819 43.511-110.851 99.398c-.429 3.975-.649 8.013-.649 12.102-.001 16.926 49.92 30.647 111.5 30.647z" fill="#66e0f7"/><path d="m367.503 121.501c0 16.925-49.92 30.646-111.5 30.646s-111.5-13.721-111.5-30.646c0-4.089.22-8.127.649-12.102-82.88 11.499-135.149 34.843-135.149 60.36 0 37.342 110.138 67.614 246 67.614s246-30.272 246-67.614c0-25.518-52.269-48.862-135.149-60.36.429 3.975.649 8.013.649 12.102z" fill="#6d91ac"/></g></g><g><path d="m375.693 100.576c-9.946-57.059-59.83-100.576-119.691-100.576-15.524 0-30.656 2.895-44.976 8.604-5.13 2.046-7.63 7.862-5.585 12.993 2.047 5.13 7.863 7.631 12.993 5.585 11.952-4.766 24.592-7.182 37.568-7.182 55.893 0 101.378 45.412 101.5 101.276-.848 1.863-7.648 7.871-28.851 13.182-19.796 4.958-45.597 7.688-72.649 7.688s-52.854-2.73-72.649-7.688c-21.202-5.311-28.003-11.318-28.851-13.181.028-12.898 2.442-25.46 7.179-37.341 2.045-5.131-.456-10.947-5.586-12.992-5.132-2.048-10.948.456-12.992 5.586-3.108 7.796-5.375 15.835-6.801 24.046-43.796 6.626-136.3 25.776-136.3 69.182 0 23.309 27.456 43.176 79.401 57.453 23.346 6.417 50.453 11.408 79.92 14.82l-68.964 257.383c-1.43 5.334 1.736 10.817 7.071 12.247.867.232 1.737.344 2.594.344 4.415 0 8.456-2.947 9.653-7.415l69.802-260.505c24.427 2.162 50.17 3.288 76.523 3.288 26.354 0 52.096-1.126 76.523-3.288l69.802 260.505c1.197 4.468 5.237 7.415 9.653 7.415.856 0 1.728-.111 2.594-.344 5.335-1.43 8.501-6.913 7.071-12.247l-68.965-257.382c29.468-3.412 56.574-8.403 79.92-14.82 51.945-14.277 79.401-34.145 79.401-57.453.001-43.413-92.527-62.561-136.308-69.183zm51.607 107.351c-45.624 12.54-106.459 19.446-171.298 19.446s-125.674-6.906-171.298-19.446c-47.757-13.126-64.702-28.765-64.702-38.168 0-12.519 30.688-35.395 114.505-48.671 0 .138-.005.276-.005.414 0 32.085 76.373 40.646 121.5 40.646s121.5-8.561 121.5-40.646c0-.138-.005-.275-.005-.413 83.818 13.276 114.505 36.152 114.505 48.671 0 9.402-16.945 25.041-64.702 38.167z"/><path d="m256.01 184.76h-.008c-5.522 0-9.996 4.478-9.996 10s4.481 10 10.004 10 10-4.478 10-10-4.477-10-10-10z"/><path d="m183.678 179.806h-.007c-5.522 0-9.997 4.478-9.997 10s4.481 10 10.004 10 10-4.478 10-10-4.477-10-10-10z"/><path d="m113.435 161.305h-.007c-5.522 0-9.997 4.478-9.997 10s4.481 10 10.004 10 10-4.478 10-10-4.477-10-10-10z"/><path d="m328.327 179.806c-5.522 0-10 4.478-10 10s4.478 10 10 10h.008c5.522 0 9.996-4.478 9.996-10s-4.482-10-10.004-10z"/><path d="m398.57 161.305c-5.522 0-10 4.478-10 10s4.478 10 10 10h.008c5.522 0 9.996-4.478 9.996-10s-4.482-10-10.004-10z"/><path d="m311.642 374.567-22.829.732-16.492-4.419 2.255-3.905c1.515.217 3.062.336 4.637.336 17.921 0 32.5-14.579 32.5-32.5s-14.579-32.5-32.5-32.5-32.5 14.579-32.5 32.5c0 9.136 3.794 17.397 9.883 23.307l-2.573 4.457-12.37-8.934-7.42-18.331c-2.072-5.119-7.903-7.587-13.021-5.518-5.119 2.072-7.59 7.902-5.518 13.021l8.5 21c.706 1.744 1.89 3.253 3.414 4.354l16.363 11.818-6.066 10.506-31.896 8.547c-3.451.925-6.146 3.62-7.071 7.071l-8.553 31.921c-1.43 5.335 1.736 10.818 7.071 12.247.867.232 1.737.344 2.594.344 4.415-.001 8.456-2.947 9.653-7.415l7.059-26.344 13.589-3.642-2.517 9.394c-.925 3.45.062 7.133 2.588 9.659l22.164 22.164c1.953 1.952 4.512 2.929 7.071 2.929s5.118-.977 7.071-2.929c3.905-3.905 3.905-10.237 0-14.143l-18.082-18.081 5.165-19.276 8.157-14.128 23.099 6.189c.845.227 1.715.341 2.588.341.106 0 .214-.002.32-.005l24.308-.779c5.521-.177 9.852-4.796 9.675-10.315s-4.809-9.844-10.316-9.673zm-32.43-52.255c6.893 0 12.5 5.607 12.5 12.5s-5.607 12.5-12.5 12.5-12.5-5.607-12.5-12.5 5.608-12.5 12.5-12.5z"/><path d="m177.16 52.658c5.522 0 10-4.478 10-10s-4.478-10-10-10h-.007c-5.522 0-9.996 4.478-9.996 10s4.48 10 10.003 10z"/></g></g></svg>