<svg height="512" viewBox="0 0 38 60" width="512" xmlns="http://www.w3.org/2000/svg"><g id="022---End-of-The-Earth"><path id="Shape" d="m2.72 13.82c.01848695 1.5926937.75903044 3.0908719 2.01316403 4.0727905 1.2541336.9819185 2.88622613 1.3413856 4.43683597.9772095 1.358854 1.1502954 3.0529996 1.8307596 4.83 1.94v2.38c-2.61.6-4 1.62-4 3s1.39 2.37 4 3c.0742152 1.9984429-.8952409 3.891912-2.56 5-.3475214.2512966-.4961152.6962068-.3693574 1.1059062.1267578.4096993.5006418.6929589.9293574.7040938.1994427.0004453.3944627-.0587572.56-.17 2.1297374-1.4143316 3.4186133-3.7935067 3.44-6.35 1.9928973.2383732 4.0071027.2383732 6 0 .019152 2.5546042 1.3040698 4.9333878 3.43 6.35.1683588.11317.367155.1724601.57.17.4403997.0009866.8296015-.2862564.9584701-.7073807.1288687-.4211244-.0329363-.8769815-.3984701-1.1226193-1.6647591-1.108088-2.6342152-3.0015571-2.56-5 2.61-.6 4-1.62 4-3s-1.39-2.37-4-3v-2.36c1.7900045-.0294035 3.5048538-.7246127 4.81-1.95 1.5458873.3774784 3.179541.0306121 4.4386755-.9424439 1.2591344-.973056 2.0067631-2.4664388 2.0313245-4.0575561-.0004851-1.5554622-.7066788-3.0266991-1.92-4 .3670593-2.32471395-.5571945-4.66539399-2.4134898-6.11218185-1.8562954-1.44678785-4.3518143-1.77146259-6.5165102-.84781815-1.2146264-1.80939743-3.2507257-2.89490741-5.43-2.89490741s-4.2153736 1.08550998-5.43 2.89490741c-2.1555517-.90923636-4.63383688-.58599984-6.48406606.84570045s-2.78509348 3.74954588-2.44593394 6.06429955c-1.21605857.9754935-1.92255112 2.4510326-1.92 4.01zm9.28 12.34c.5805672-.4650156 1.2680023-.7777986 2-.91v1.82c-.7343614-.1245648-1.4236373-.4381853-2-.91zm4 1.3v-6.85c1.1286028-.3069231 2.1608332-.8952944 3-1.71.8538061.7839693 1.8822484 1.3530407 3 1.66v6.9c-1.992185.2500392-4.007815.2500392-6 0zm10-1.3c-.5789796.4675924-1.2671026.7806884-2 .91v-1.82c.7319977.1322014 1.4194328.4449844 2 .91zm-19.73-15.06c.37525326-.2280883.55779489-.6743011.45-1.1-1.12-3.83 3.28-7 6.73-4.89.6979884.43360987 1.2648906 1.04890616 1.64 1.78.2743095.43444969.8332144.59032436 1.2927726.36054525.4595583-.22977912.6702015-.77042786.4872274-1.25054525-.3883091-.767964-.9293638-1.44853605-1.59-2 .8494865-1.21423423 2.238112-1.93746278 3.72-1.93746278s2.8705135.72322855 3.72 1.93746278c-.6606362.55146395-1.2016909 1.232036-1.59 2-.2013504.48352717.0045141 1.04049627.4719378 1.2768341s1.0380149.07195864 1.3080622-.3768341c.3757363-.7338545.9466914-1.34979392 1.65-1.78 3.44-2.12 7.84.98 6.72 4.88-.1277247.4381657.0574264.9072152.45 1.14 1.1786268.7705395 1.7126003 2.2227292 1.3138949 3.5732574-.3987055 1.3505281-1.6357596 2.2798718-3.0438949 2.2867426-1.6127348.0142284-2.9919401-1.1563933-3.24-2.75-.0823117-.5426636-.5866369-.9175603-1.13-.84-.5467163.0773971-.9272331.5832605-.85 1.13.1986055 1.3422608.9169328 2.5526423 2 3.37-2.265936 1.5295538-5.330447 1.0348541-7-1.13-.1894263-.2440794-.4810387-.3868932-.79-.3868932s-.6005737.1428138-.79.3868932c-.9200203 1.2877478-2.4177896 2.0366325-4 2-1.0361866-.069835-2.0422851-.3778243-2.94-.9 1.0841056-.8120422 1.8030589-2.0198838 2-3.36.0772331-.5467395-.3032837-1.0526029-.85-1.13-.5433631-.0775603-1.0476883.2973364-1.13.84-.1727898 1.1682642-.9768743 2.1454768-2.09 2.54-.99541725.3778626-2.11247365.2474389-2.99406736-.3495772-.88159372-.5970161-1.41732573-1.5858621-1.43593264-2.6504228.00673689-1.0915083.57806222-2.1017326 1.51-2.67z"/><path id="Shape" d="m9.1 10.4c.32015738-.0002358.62084608-.1537516.80880055-.4129309.18795445-.25917932.24044835-.59268372.14119945-.8970691-.09088564-.25449086-.06528751-.53607033.07-.77.2657138-.25590195.6350853-.37410082 1-.32.5522847 0 1-.44771525 1-1s-.4477153-1-1-1c-3.71-.13-3.8 4.4-2.02 4.4z"/><path id="Shape" d="m23.83 38c-2.57.38-3.26-.08-4.53.34-1.73.6-2.39 2.59-2.29 4.3.23 3.78 3.91 4.34 5.42 6 1.8 2 .5 4 2 5.21.995592.6722349 2.3354611.5010056 3.13-.4 1.1651464-1.0928804 1.958933-2.523095 2.27-4.09.1664277-.8071547.2667602-1.6265366.3-2.45.17-2.23.24-2.42.89-3.46.3278975-.4486362.5999023-.9355584.81-1.45.77-2.25-1-5-4.63-4.64-1.2.14-2.26.49-3.37.64zm3.6 1.33c.8135776-.1658897 1.6559412.0898278 2.24.68.67.87.23 1.56-.3 2.4-.75 1.21-1 1.62-1.18 4.37-.13 1.77-.32 3.77-1.92 5.2-.29.26-.51.33-.57.3-.28-.21.19-2.76-1.78-5-1.83-2-4.76-2.26-4.91-4.81-.06-1 .24-2 .93-2.27.3784269-.0979598.7717081-.1250826 1.16-.08 3.08.16 4.69-.59 6.33-.78z"/><path id="Shape" d="m31.49 26.69c-.2651659-.2546943-.6487093-.3433359-.9987417-.2308216-.3500324.1125144-.6100907.4080352-.6771882.7695321-.0670976.361497.069589.7306577.3559299.9612895 2.0632947 1.8033666 3.6559271 4.0824785 4.64 6.64-1.64-.36-2.92-.54-3.75-1.21-1.0703065-.7787324-1.9323574-1.8090721-2.51-3-.2043454-.5136248-.7863752-.7643453-1.3-.56-.5136248.2043454-.7643453.7863752-.56 1.3.7046426 1.5000017 1.7738594 2.7995642 3.11 3.78 1.3 1 2.8 1.21 5.71 1.84 1.894809 7.7979966-1.9419159 15.8555364-9.19 19.3-2.63-3.08-12-3.09-14.64 0-.6010717-.3012851-1.1852718-.6351138-1.75-1-.25-4.07-.43-5.31.94-7.82.8077348-1.172112 1.2050406-2.578504 1.13-4-.23-2-1.77-2.68-2.58-3.67-2.67-3.22 2.69-6.11-2.14-11.18.19-.17.36-.36.55-.53.28634092-.2306318.42302749-.5997925.35592993-.9612895-.06709756-.3614969-.32715588-.6570177-.67718824-.7695321-.35003236-.1125143-.73357577-.0238727-.99874169.2308216-4.13734255 3.6507997-6.50812767 8.9022162-6.51 14.42-.00360411 8.7610686 5.98382029 16.3887637 14.4950663 18.4660281 8.511246 2.0772643 17.339415-1.9345203 21.3722774-9.7122036 4.0328624-7.7776832 2.2247289-17.3045735-4.3773437-23.0638245zm-25.58 3.5c2.36 2.53 1.3 3.77.81 6.45-.29139488 1.6099958.1320102 3.2671157 1.16 4.54.93 1.12 2 1.51 2.14 2.61-.0030463 1.000887-.31759937 1.9760015-.9 2.79-1 1.78-1.55 3-1.29 7.2-6.95332763-6.0304177-7.80663412-16.5145324-1.92-23.59zm7.84 27c2.45-1.55 8-1.55 10.5 0-3.4135304 1.1106991-7.0928721 1.1001867-10.5-.03z"/></g></svg>